<svg width="24" height="20" viewBox="0 0 24 20" fill="none" xmlns="http://www.w3.org/2000/svg">
<g filter="url(#filter0_d)">
<path d="M18.5 0H5.50001C4.67285 0 4 0.672853 4 1.50001V10.5C4 11.3271 4.67285 12 5.50001 12H18.5C19.3271 12 20 11.3271 20 10.5V1.50001C20 0.672853 19.3271 0 18.5 0ZM18.5 0.999994C18.5679 0.999994 18.6325 1.01409 18.6916 1.0387L12 6.83838L5.30833 1.0387C5.36742 1.01412 5.43204 0.999994 5.49998 0.999994H18.5ZM18.5 11H5.50001C5.22414 11 5 10.7759 5 10.5V2.09521L11.6724 7.87792C11.7666 7.95944 11.8833 7.99999 12 7.99999C12.1167 7.99999 12.2334 7.95948 12.3276 7.87792L19 2.09521V10.5C19 10.7759 18.7759 11 18.5 11Z" fill="#2196F3"/>
</g>
<defs>
<filter id="filter0_d" x="0" y="0" width="24" height="20" filterUnits="userSpaceOnUse" color-interpolation-filters="sRGB">
<feFlood flood-opacity="0" result="BackgroundImageFix"/>
<feColorMatrix in="SourceAlpha" type="matrix" values="0 0 0 0 0 0 0 0 0 0 0 0 0 0 0 0 0 0 127 0" result="hardAlpha"/>
<feOffset dy="4"/>
<feGaussianBlur stdDeviation="2"/>
<feComposite in2="hardAlpha" operator="out"/>
<feColorMatrix type="matrix" values="0 0 0 0 0 0 0 0 0 0 0 0 0 0 0 0 0 0 0.25 0"/>
<feBlend mode="normal" in2="BackgroundImageFix" result="effect1_dropShadow"/>
<feBlend mode="normal" in="SourceGraphic" in2="effect1_dropShadow" result="shape"/>
</filter>
</defs>
</svg>
